<svg xmlns="http://www.w3.org/2000/svg" width="500" height="500" fill="none" viewBox="0 0 500 500"><g clip-path="url(#a)"><path fill="#000" d="M0 0h500v500H0z"/><path fill="url(#b)" fill-opacity=".6" d="M0 0h500v500H0z"/><g filter="url(#c)"><path fill="#13151A" d="M80 110c0-16.569 13.431-30 30-30h390v420H80V110Z"/><path stroke="#373E4E" stroke-width="8" d="M504 80v-4H110c-18.778 0-34 15.222-34 34v394h428V80Z"/></g><path fill="#3D4150" fill-opacity=".3" stroke="#373E4E" stroke-width="8" d="M504 80v-4H110c-18.778 0-34 15.222-34 34v74h428V80Z"/><circle cx="130" cy="130" r="20" fill="#FF5871"/><circle cx="200" cy="130" r="20" fill="#BA1FCE"/><rect width="226.743" height="158.476" x="110" y="218" fill="#3D4150" rx="20"/><rect width="226.743" height="158.476" x="366.743" y="218" fill="#3D4150" rx="20"/><rect width="226.743" height="158.476" x="110" y="406.476" fill="#3D4150" rx="20"/><rect width="226.743" height="158.476" x="366.743" y="406.476" fill="#3D4150" rx="20"/></g><defs><linearGradient id="b" x1="500" x2="0" y1="0" y2="500" gradientUnits="userSpaceOnUse"><stop offset=".208" stop-color="#FFDEE9"/><stop offset="1" stop-color="#B5FFFC"/></linearGradient><clipPath id="a"><path fill="#fff" d="M0 0h500v500H0z"/></clipPath><filter id="c" width="452" height="452" x="56" y="72" color-interpolation-filters="sRGB" filterUnits="userSpaceOnUse"><feFlood flood-opacity="0" result="BackgroundImageFix"/><feColorMatrix in="SourceAlpha" result="hardAlpha" values="0 0 0 0 0 0 0 0 0 0 0 0 0 0 0 0 0 0 127 0"/><feOffset dx="-16" dy="16"/><feComposite in2="hardAlpha" operator="out"/><feColorMatrix values="0 0 0 0 0 0 0 0 0 0 0 0 0 0 0 0 0 0 1 0"/><feBlend in2="BackgroundImageFix" result="effect1_dropShadow_29_25"/><feBlend in="SourceGraphic" in2="effect1_dropShadow_29_25" result="shape"/></filter></defs></svg>